<?xml version="1.0" encoding="UTF-8"?>
<svg id="Layer_1" data-name="Layer 1" xmlns="http://www.w3.org/2000/svg" viewBox="0 0 490.89 436.39">
  <defs>
    <style>
      .cls-1 {
        stroke-width: 3px;
      }

      .cls-1, .cls-2 {
        fill: none;
      }

      .cls-1, .cls-2, .cls-3 {
        stroke: #000;
        stroke-miterlimit: 10;
      }

      .cls-2, .cls-3 {
        stroke-width: 2px;
      }

      .cls-3 {
        fill: #fff;
      }
    </style>
  </defs>
  <path class="cls-2" d="m439.46,311.18c.21.89.84,1.95.56,2.65-5.67,14.12-12.16,27.8-23.4,38.48-11.28,10.7-23.3,20.63-38.17,25.84-10.39,3.64-21.16,6.01-32.46,5.97-66.99-.2-133.99.37-200.97-.36-28.53-.31-53.74-10.66-72.5-33.12-9.54-11.42-18.5-23.48-21.24-38.77,3.19-1.12,3.8-3.45,3.79-6.63-.1-39.88-.07-79.75-.08-119.63,0-1.61,0-3.22,0-4.92-2.22-.38-3.84-.65-5.46-.93,2.41-6.36,4.16-13.07,7.33-19.02,10.66-20.02,26.96-34.58,46.82-44.98,13.83-7.24,29.06-9.78,44.59-9.95,18.46-.2,36.92-.11,55.38-.03,48.86.22,97.72.49,146.59.78,18.15.11,34.28,7.1,49.11,16.49,12.23,7.74,22.91,17.9,29.88,30.88,4.16,7.75,6.8,16.31,10.12,24.5-4.01.69-2.89,3.93-2.89,6.3-.08,40.12-.06,80.24-.06,120.36,0,1.16-.28,2.51.22,3.43.58,1.08,1.87,1.77,2.85,2.63Zm-194.75,39.74s0,.04,0,.06c25.44,0,50.88-.17,76.32.06,15.24.14,29.84-1.65,42.5-11,5.15-3.81,11.32-7.09,14.82-12.13,8.61-12.38,14.53-26.07,14.47-41.71-.1-24.27.08-48.54-.06-72.8-.06-11.2-1.31-22.12-6.74-32.39-4.3-8.13-8.82-15.49-16.39-21.35-13.77-10.65-29.13-15.19-46.17-15.2-49.05-.03-98.11-.05-147.16.03-7.96.01-16.05-.2-23.85,1.08-7.3,1.2-15.01,3.03-21.27,6.74-9.28,5.5-17.02,13.24-23.13,22.44-5.18,7.79-9.47,16.27-9.67,25.39-.67,29.57-.44,59.16-.35,88.75.07,22.55,12.49,38.6,28.99,51.83,9.5,7.62,21.24,10.16,33.38,10.18,28.1.04,56.2.01,84.31.01Z"/>
  <path class="cls-1" d="m49.53,179.78c1.62.27,3.23.55,5.46.93,0,1.69,0,3.3,0,4.92,0,39.88-.02,79.75.08,119.63,0,3.18-.6,5.51-3.79,6.63-4.16-1.54-8.32-3.06-12.48-4.62-15.65-5.87-25.13-17.67-31.61-32.5-6.9-15.81-6.7-32.21-3.74-48.63,1.12-6.2,4.49-11.97,6.51-18.05,4.87-14.62,9.42-29.34,14.36-43.93,2.63-7.77,5.21-15.64,8.83-22.96,6.28-12.7,12.61-25.49,20.29-37.36,6.66-10.29,14.9-19.62,22.99-28.9,17.05-19.57,37.71-34.68,60.56-46.74,14.24-7.51,29.31-12.9,44.73-17.78C208.03,2.09,234.84.68,261.94,1.87c19.17.84,37.73,5.41,56.03,11.26,17.08,5.47,33.07,13.06,48.26,22.45,19.95,12.33,37.61,27.26,53.08,44.98,12.2,13.97,22.44,29.14,31.19,45.38,9.13,16.93,14.63,35.23,20.13,53.59,3.78,12.63,9.06,24.8,13.53,37.23,5.47,15.24,7.01,30.69,2.86,46.61-1.93,7.4-4.95,14.14-8.36,20.96-2.94,5.89-3.42,12.98-5.24,19.47-5.82,20.73-16.87,38.57-30.31,55.18-18.32,22.64-40.62,40.54-65.03,56.09-2.97,1.89-5.99,3.77-5.7,8.71.34,5.88-5.66,10.95-11.49,10.95-23.95.04-47.9-.2-71.85.13-11.16.15-15.46-8.13-12.37-17.91,1.78-5.65,7.02-6.71,11.29-6.79,23.94-.44,47.9-.22,71.85-.22.5,0,1.12-.14,1.48.09,7.3,4.86,13.17.62,18.55-3.44,11.82-8.9,23.38-18.15,34.89-27.47,14.93-12.09,27.2-26.66,36.95-43.08,6.04-10.17,10.33-21.37,15.29-32.17.38-.82.07-2.19-.38-3.06-.19-.37-1.7-.38-2.42-.09-8.25,3.42-16.46,6.93-24.68,10.41-.98-.86-2.27-1.56-2.85-2.63-.5-.91-.22-2.27-.22-3.43,0-40.12-.01-80.24.06-120.36,0-2.38-1.11-5.61,2.89-6.3,4.07,3.33,8.57,4.45,14.5,3.12-4.07-11.8-7.15-23.3-11.94-34.03-8.07-18.09-18.23-35.01-30.92-50.44-11.7-14.23-24.78-26.9-39.77-37.47-14.47-10.21-29.21-20.08-46.44-25.41-10.56-3.26-20.78-7.78-31.49-10.31-11.04-2.61-22.45-3.76-33.75-5.09-16.53-1.94-32.83.36-49.21,2.71-20.68,2.96-40.19,9.45-58.83,18.38-16.38,7.85-31.42,17.94-45.3,29.86-18.85,16.17-34.66,34.79-46.77,56.37-8.51,15.18-15.32,31.23-20.19,48-.74,2.56-.89,5.3-1.47,8.96,4.67-1.31,8.22-2.31,11.77-3.31Z"/>
  <path d="m244.72,350.92c-28.1,0-56.2.03-84.31-.01-12.14-.02-23.87-2.56-33.38-10.18-16.5-13.24-28.93-29.28-28.99-51.83-.09-29.58-.32-59.18.35-88.75.21-9.12,4.49-17.59,9.67-25.39,6.12-9.2,13.86-16.95,23.13-22.44-2.34.88,12.5-4.76,21.27-6.74,7.8-1.28,15.89-1.07,23.85-1.08,49.05-.08,98.11-.06,147.16-.03,17.03,0,32.39,4.55,46.17,15.2,7.57,5.86,12.09,13.22,16.39,21.35,5.43,10.27,6.68,21.19,6.74,32.39.13,24.27-.04,48.54.06,72.8.06,15.63-5.86,29.33-14.47,41.71-3.51,5.05-9.67,8.32-14.82,12.13-12.66,9.36-27.26,11.14-42.5,11-25.44-.23-50.88-.06-76.32-.06,0-.02,0-.04,0-.06Zm1.18-38.17c10.59,1,20.71-.41,30.38-4.75,7.26-3.26,14.66-6.23,21.77-9.78,2.57-1.28,4.97-3.6,6.45-6.05.75-1.24-.2-5.05-1.33-5.55-2.27-1.01-5.5-1.37-7.79-.54-9.49,3.46-18.65,7.84-28.19,11.13-5.79,2-12.01,3.35-18.11,3.73-19.45,1.23-36.37-6.98-53.11-15.41-4.43-2.23-8.06-1.58-10.49,2.66-1.59,2.77,0,7.07,3.77,8.75,5.34,2.39,11.01,4.02,16.28,6.54,12.83,6.13,25.87,11.02,40.38,9.26Zm88.81-98.38c1.14-10.33-9.68-19.07-17.31-18.92-11.84.24-17.91,5.57-18.39,19.67-.33,9.7,9.12,15.85,17.68,16.07,10.81.28,17.94-6.53,18.02-16.82Zm-178.54-1.52c-.07,10.78,7.35,19.41,17.09,19.24,7.89-.14,17.55-8.77,18.44-15.83,1.78-14.16-9.27-19.97-18.95-20.62-8.23-.55-16.52,8.41-16.58,17.21Z"/>
  <path class="cls-1" d="m245.89,312.75c-14.51,1.77-27.55-3.12-40.38-9.26-5.26-2.52-10.94-4.16-16.28-6.54-3.76-1.68-5.36-5.98-3.77-8.75,2.43-4.24,6.06-4.89,10.49-2.66,16.73,8.43,33.66,16.64,53.11,15.41,6.1-.39,12.32-1.74,18.11-3.73,9.54-3.29,18.7-7.67,28.19-11.13,2.3-.84,5.52-.47,7.79.54,1.13.5,2.08,4.31,1.33,5.55-1.48,2.45-3.88,4.76-6.45,6.05-7.11,3.56-14.51,6.52-21.77,9.78-9.67,4.34-19.79,5.75-30.38,4.75Z"/>
  <path class="cls-3" d="m334.7,214.37c-.08,10.28-7.2,17.1-18.02,16.82-8.56-.22-18.01-6.37-17.68-16.07.48-14.1,6.55-19.43,18.39-19.67,7.63-.15,18.46,8.59,17.31,18.92Z"/>
  <path class="cls-1" d="m156.17,212.85c.06-8.8,8.35-17.76,16.58-17.21,9.68.64,20.73,6.46,18.95,20.62-.89,7.05-10.55,15.69-18.44,15.83-9.75.17-17.17-8.46-17.09-19.24Z"/>
</svg>