<?xml version="1.0" encoding="UTF-8"?>
<svg id="Layer_1" data-name="Layer 1" xmlns="http://www.w3.org/2000/svg" viewBox="0 0 163.23 163.23">
  <defs>
    <style>
      .cls-1 {
        fill: #fff;
      }

      .cls-2 {
        fill: #518bfb;
      }
    </style>
  </defs>
  <circle class="cls-2" cx="81.62" cy="81.62" r="81.62"/>
  <g>
    <path class="cls-1" d="m70.38,111.77c-.15-11.61-.47-23.23-.38-34.84.04-4.39,2.67-7.95,5.42-11.27,3.13-3.78,6.29-7.55,9.22-11.48,2.19-2.94,3.46-6.3,3.1-10.09-.37-3.9.89-7.23,4.92-7.94,3.85-.68,5.88,1.69,7.49,5.45,2.89,6.75,1.21,13.22.28,19.82-.22,1.61-.72,3.18-1.23,5.35,6.08,0,11.94-.04,17.8,0,6.95.05,9.94,4.74,7.07,11.01-.67,1.46-1.08,2.47.04,4.31,1.93,3.17,1.85,6.81-1.06,9.8-.64.66-.77.66-.95,1.08-.61,1.49,1.07,2.69,1.76,5.48.12.5.47,2.11.13,3.96-.44,2.35-1.51,2.45-2.43,4.97-1.13,3.1,0,4.55-1.33,5.89-.91.91-2.36,1.33-4.6,1.33-13.6.04-27.21.04-40.81-.02-1.47,0-3.48.89-4.14-1.53-.1-.42-.2-.85-.31-1.27Z"/>
    <path class="cls-1" d="m64.89,99.48c0,6.46-.11,12.93.05,19.39.08,3.24-1.22,4.48-4.38,4.41-4.97-.12-9.94-.08-14.9-.02-2.77.04-3.76-1.24-3.74-3.95.06-13.42.03-26.84-.02-40.26,0-2.44.91-3.69,3.49-3.66,5.13.06,10.27-.06,15.4.03,2.95.05,4.27,1.55,4.18,4.68-.18,6.46-.05,12.93-.05,19.39,0,0-.01,0-.02,0Z"/>
  </g>
</svg>